<svg width="22" height="20" fill="none" xmlns="http://www.w3.org/2000/svg"><path d="M5.572 13.653c3.559 3.13 4.765 4.097 4.803 4.128l.625.5.625-.5c.038-.03 1.244-.998 4.802-4.128l.224-.196c.867-.76 1.893-1.66 2.713-2.684C20.265 9.648 21 8.275 21 6.631 21 3.481 18.35 1 15.169 1A5.92 5.92 0 0011 2.694 5.92 5.92 0 006.831 1C3.651 1 1 3.482 1 6.631c0 1.644.735 3.017 1.636 4.142.82 1.024 1.846 1.924 2.713 2.684l.223.196z" fill="#F1592A"/><path d="M5.572 13.653c3.559 3.13 4.765 4.097 4.803 4.128l.625.5.625-.5c.038-.03 1.244-.998 4.802-4.128l.224-.196c.867-.76 1.893-1.66 2.713-2.684C20.265 9.648 21 8.275 21 6.631 21 3.481 18.35 1 15.169 1A5.92 5.92 0 0011 2.694 5.92 5.92 0 006.831 1C3.651 1 1 3.482 1 6.631c0 1.644.735 3.017 1.636 4.142.82 1.024 1.846 1.924 2.713 2.684l.223.196z" fill="#F7542E"/><path d="M5.572 13.653c3.559 3.13 4.765 4.097 4.803 4.128l.625.5.625-.5c.038-.03 1.244-.998 4.802-4.128l.224-.196c.867-.76 1.893-1.66 2.713-2.684C20.265 9.648 21 8.275 21 6.631 21 3.481 18.35 1 15.169 1A5.92 5.92 0 0011 2.694 5.92 5.92 0 006.831 1C3.651 1 1 3.482 1 6.631c0 1.644.735 3.017 1.636 4.142.82 1.024 1.846 1.924 2.713 2.684l.223.196z" stroke="#fff" stroke-width="2"/></svg>