<svg width="20" height="20" fill="none" xmlns="http://www.w3.org/2000/svg"><path d="M1.617 6.527A5.336 5.336 0 016.953 1.19h6.522a5.336 5.336 0 015.336 5.337v6.522a5.336 5.336 0 01-5.336 5.336H6.953a5.336 5.336 0 01-5.336-5.336V6.527z" stroke="#F02305" stroke-width="1.712"/><path d="M1.617 6.527A5.336 5.336 0 016.953 1.19h6.522a5.336 5.336 0 015.336 5.337v6.522a5.336 5.336 0 01-5.336 5.336H6.953a5.336 5.336 0 01-5.336-5.336V6.527z" stroke="url(#paint0_linear_518_20992)" stroke-width="1.712"/><path d="M1.617 6.527A5.336 5.336 0 016.953 1.19h6.522a5.336 5.336 0 015.336 5.337v6.522a5.336 5.336 0 01-5.336 5.336H6.953a5.336 5.336 0 01-5.336-5.336V6.527z" stroke="url(#paint1_linear_518_20992)" stroke-width="1.712"/><path d="M6.36 9.788a3.854 3.854 0 117.708 0 3.854 3.854 0 01-7.708 0z" stroke="#F02305" stroke-width="1.712"/><path d="M6.36 9.788a3.854 3.854 0 117.708 0 3.854 3.854 0 01-7.708 0z" stroke="url(#paint2_linear_518_20992)" stroke-width="1.712"/><path d="M6.36 9.788a3.854 3.854 0 117.708 0 3.854 3.854 0 01-7.708 0z" stroke="url(#paint3_linear_518_20992)" stroke-width="1.712"/><rect x="13.18" y="3.266" width="2.372" height="2.372" rx="1.186" fill="#D02670"/><defs><linearGradient id="paint0_linear_518_20992" x1="10.214" y1="1.19" x2="10.214" y2="10.084" gradientUnits="userSpaceOnUse"><stop stop-color="#C127A1"/><stop offset="1" stop-color="#C127A1" stop-opacity="0"/></linearGradient><linearGradient id="paint1_linear_518_20992" x1="10.214" y1="18.978" x2="10.214" y2="9.788" gradientUnits="userSpaceOnUse"><stop stop-color="#F9AC19"/><stop offset="1" stop-color="#F9AC19" stop-opacity="0"/></linearGradient><linearGradient id="paint2_linear_518_20992" x1="10.214" y1="1.19" x2="10.214" y2="10.084" gradientUnits="userSpaceOnUse"><stop stop-color="#C127A1"/><stop offset="1" stop-color="#C127A1" stop-opacity="0"/></linearGradient><linearGradient id="paint3_linear_518_20992" x1="10.214" y1="18.978" x2="10.214" y2="9.788" gradientUnits="userSpaceOnUse"><stop stop-color="#F9AC19"/><stop offset="1" stop-color="#F9AC19" stop-opacity="0"/></linearGradient></defs></svg>