<svg width="25" height="14" fill="none" xmlns="http://www.w3.org/2000/svg"><g clip-path="url(#clip0_511_35521)"><rect y=".5" width="25" height="12" rx="2" fill="#9199A0"/><path d="M4.5 4H7a1.5 1.5 0 110 3H4.5V4zm12 2a2 2 0 114 0v1a2 2 0 11-4 0V6zm-6-2h2.556a1.333 1.333 0 010 2.667H10.5V4z" stroke="#fff"/><path fill="#fff" d="M4 3.5h1v6H4zm6 0h1v6h-1zm2 3.566l.73-.566 2.043 2.637-.729.565z"/></g><defs><clipPath id="clip0_511_35521"><path fill="#fff" transform="translate(0 .5)" d="M0 0h25v13H0z"/></clipPath></defs></svg>