<svg width="60" height="60" fill="none" xmlns="http://www.w3.org/2000/svg"><path d="M26.603 21.105a3.772 3.772 0 11-5.334 5.334 3.772 3.772 0 015.334-5.334z" fill="#3B2F3B"/><path d="M26.603 21.105a3.772 3.772 0 11-5.334 5.334 3.772 3.772 0 015.334-5.334z" fill="#1A1A1A"/><path d="M21.153 33.28a3.936 3.936 0 115.566 5.568 3.936 3.936 0 01-5.566-5.567z" fill="#3B2F3B"/><path d="M21.153 33.28a3.936 3.936 0 115.566 5.568 3.936 3.936 0 01-5.566-5.567z" fill="#1A1A1A"/><path d="M38.895 33.397a3.772 3.772 0 11-5.334 5.334 3.772 3.772 0 015.334-5.334z" fill="#3B2F3B"/><path d="M38.895 33.397a3.772 3.772 0 11-5.334 5.334 3.772 3.772 0 015.334-5.334z" fill="#1A1A1A"/><path d="M33.329 21.105c1.473-1.473 3.913-1.421 5.45.116 1.537 1.537 1.59 3.977.116 5.45-1.473 1.473-3.913 1.421-5.45-.116-1.537-1.537-1.59-3.977-.116-5.45z" fill="#3B2F3B"/><path d="M33.329 21.105c1.473-1.473 3.913-1.421 5.45.116 1.537 1.537 1.59 3.977.116 5.45-1.473 1.473-3.913 1.421-5.45-.116-1.537-1.537-1.59-3.977-.116-5.45z" fill="#1A1A1A"/><rect x="21.566" y="23.504" width="2.708" height="20.679" rx="1.354" transform="rotate(-45 21.566 23.504)" fill="#F1592A"/><rect width="2.708" height="20.679" rx="1.354" transform="scale(-1 1) rotate(-45 9.32 57.75)" fill="#F1592A"/><path fill="#FEF8E8" d="M21 1h18v11H21z"/><path stroke="#3B2F3B" stroke-width="2" d="M21 1h18v11H21z"/><path stroke="#1A1A1A" stroke-width="2" d="M21 1h18v11H21z"/><path fill="#D0D2D5" d="M46 15h8v2h-8zm6 39v-7h2v7zm-11 0v-7h2v7zm7-43h6v2h-6zm0 43v-7h2v7zm-11 0v-7h2v7zm7-47h10v2H44zm1 47v-7h2v7zm-11 0v-7h2v7z"/><path stroke="#3B2F3B" stroke-width="2" d="M1 1h58v58H1z"/><path stroke="#1A1A1A" stroke-width="2" d="M1 1h58v58H1z"/></svg>