<svg width="768" height="8" fill="none" xmlns="http://www.w3.org/2000/svg"><g clip-path="url(#clip0_937_7761)"><path fill="#fff" d="M-531 0h2034v8H-531z"/><path d="M-531 0l5 4-5 4V0zm46 2l-4 5-4-5h8zm72 4l4-5 4 5h-8zm-33 2l-5-4 5-4v8zm74-8l5 4-5 4V0zm46 2l-4 5-4-5h8zm72 4l4-5 4 5h-8zm-33 2l-5-4 5-4v8zm74-8l5 4-5 4V0zm46 2l-4 5-4-5h8zm72 4l4-5 4 5h-8zm-33 2l-5-4 5-4v8z" fill="#C4C4C4"/><path d="M-213 0l5 4-5 4V0zm46 2l-4 5-4-5h8zm72 4l4-5 4 5h-8zm-33 2l-5-4 5-4v8zm74-8l5 4-5 4V0zm46 2l-4 5-4-5h8zm72 4l4-5 4 5h-8zM31 8l-5-4 5-4v8z" fill="#C4C4C4"/><path d="M-54 0l5 4-5 4V0zm46 2l-4 5-4-5h8zm72 4l4-5 4 5h-8zM31 8l-5-4 5-4v8z" fill="#C4C4C4"/><path d="M-54 0l5 4-5 4V0zm46 2l-4 5-4-5h8zm72 4l4-5 4 5h-8zM31 8l-5-4 5-4v8zm74-8l5 4-5 4V0zm46 2l-4 5-4-5h8zm72 4l4-5 4 5h-8zm-33 2l-5-4 5-4v8zm74-8l5 4-5 4V0zm46 2l-4 5-4-5h8zm72 4l4-5 4 5h-8zm-33 2l-5-4 5-4v8z" fill="#C4C4C4"/><path d="M264 0l5 4-5 4V0zm46 2l-4 5-4-5h8zm72 4l4-5 4 5h-8zm-33 2l-5-4 5-4v8zm74-8l5 4-5 4V0zm46 2l-4 5-4-5h8zm72 4l4-5 4 5h-8zm-33 2l-5-4 5-4v8z" fill="#C4C4C4"/><path d="M423 0l5 4-5 4V0zm46 2l-4 5-4-5h8zm72 4l4-5 4 5h-8zm-33 2l-5-4 5-4v8z" fill="#C4C4C4"/><path d="M423 0l5 4-5 4V0zm46 2l-4 5-4-5h8zm72 4l4-5 4 5h-8zm-33 2l-5-4 5-4v8zm74-8l5 4-5 4V0zm46 2l-4 5-4-5h8zm72 4l4-5 4 5h-8zm-33 2l-5-4 5-4v8zm74-8l5 4-5 4V0zm46 2l-4 5-4-5h8zm72 4l4-5 4 5h-8zm-33 2l-5-4 5-4v8z" fill="#C4C4C4"/><path d="M741 0l5 4-5 4V0zm46 2l-4 5-4-5h8zm72 4l4-5 4 5h-8zm-33 2l-5-4 5-4v8zm74-8l5 4-5 4V0zm46 2l-4 5-4-5h8zm72 4l4-5 4 5h-8zm-33 2l-5-4 5-4v8z" fill="#C4C4C4"/><path d="M900 0l5 4-5 4V0zm46 2l-4 5-4-5h8zm72 4l4-5 4 5h-8zm-33 2l-5-4 5-4v8z" fill="#C4C4C4"/><path d="M900 0l5 4-5 4V0zm46 2l-4 5-4-5h8zm72 4l4-5 4 5h-8zm-33 2l-5-4 5-4v8zm74-8l5 4-5 4V0zm46 2l-4 5-4-5h8zm72 4l4-5 4 5h-8zm-33 2l-5-4 5-4v8zm74-8l5 4-5 4V0zm46 2l-4 5-4-5h8zm72 4l4-5 4 5h-8zm-33 2l-5-4 5-4v8z" fill="#C4C4C4"/><path d="M1218 0l5 4-5 4V0zm46 2l-4 5-4-5h8zm72 4l4-5 4 5h-8zm-33 2l-5-4 5-4v8zm74-8l5 4-5 4V0zm46 2l-4 5-4-5h8zm72 4l4-5 4 5h-8zm-33 2l-5-4 5-4v8z" fill="#C4C4C4"/><path d="M1377 0l5 4-5 4V0zm46 2l-4 5-4-5h8zm72 4l4-5 4 5h-8zm-33 2l-5-4 5-4v8z" fill="#C4C4C4"/></g><defs><clipPath id="clip0_937_7761"><path fill="#fff" transform="translate(-531)" d="M0 0h2034v8H0z"/></clipPath></defs></svg>