<svg width="21" height="13" fill="none" xmlns="http://www.w3.org/2000/svg"><path d="M20.366 11.657a1.628 1.628 0 00-.067-.146c-.343-.704-.998-1.567-1.965-2.591l-.021-.024-.01-.011-.01-.012h-.01c-.44-.477-.718-.797-.834-.961-.213-.313-.261-.63-.145-.95.083-.242.392-.754.927-1.536.28-.414.504-.746.668-.996 1.187-1.798 1.702-2.946 1.544-3.447L20.38.866c-.04-.07-.147-.134-.318-.193-.172-.059-.391-.068-.66-.03L16.44.667c-.049-.02-.117-.018-.206.006L16.1.708l-.052.03-.04.035a.489.489 0 00-.114.123.842.842 0 00-.103.205c-.322.946-.69 1.825-1.1 2.638-.255.484-.488.904-.7 1.26a6.017 6.017 0 01-.536.785 3.943 3.943 0 01-.39.405c-.117.101-.206.144-.268.129a6.762 6.762 0 01-.175-.047.75.75 0 01-.232-.288 1.423 1.423 0 01-.118-.457 5.73 5.73 0 01-.036-.475c-.003-.132-.002-.32.005-.562.007-.243.01-.407.01-.493 0-.297.006-.62.016-.967l.026-.826c.007-.203.01-.418.01-.645a3.07 3.07 0 00-.036-.533 2.008 2.008 0 00-.108-.376.616.616 0 00-.21-.281 1.112 1.112 0 00-.346-.158c-.363-.094-.826-.145-1.389-.153C8.94.042 8.12.136 7.755.34a1.431 1.431 0 00-.39.351c-.124.172-.14.266-.052.282.412.07.703.238.875.504l.062.14c.048.102.096.282.144.54.048.258.079.543.092.855.035.571.035 1.06 0 1.466-.034.406-.066.723-.097.95a2.105 2.105 0 01-.263.808.19.19 0 01-.051.059.688.688 0 01-.278.059c-.096 0-.213-.055-.35-.165-.137-.11-.28-.26-.427-.451a6.09 6.09 0 01-.5-.803c-.184-.344-.376-.75-.575-1.22l-.165-.34a31.019 31.019 0 01-.422-.955 19.807 19.807 0 01-.473-1.213.77.77 0 00-.247-.375L4.586.796A.991.991 0 004.185.62l-2.82.023C1.079.643.883.717.78.866l-.041.07a.425.425 0 00-.031.188c0 .086.02.191.062.316a40.928 40.928 0 001.343 3.189 37.311 37.311 0 001.26 2.473c.357.626.72 1.216 1.09 1.77.371.556.617.911.737 1.067.12.157.214.274.283.352l.257.281c.165.188.406.413.725.674.32.262.673.52 1.06.774.388.254.839.461 1.353.622a4.15 4.15 0 001.503.193h1.183c.24-.024.422-.11.545-.258l.041-.059a.841.841 0 00.078-.216c.024-.098.036-.205.036-.323a4.382 4.382 0 01.066-.908c.052-.27.11-.473.175-.61a1.53 1.53 0 01.222-.345.934.934 0 01.175-.17.627.627 0 01.082-.041c.165-.063.358-.002.582.181.222.184.432.41.627.68.196.27.43.573.705.909.274.336.515.586.72.75l.206.14c.137.095.316.18.535.259.22.078.412.098.576.059l2.635-.047c.26 0 .463-.05.607-.147.144-.098.23-.205.257-.322.027-.118.029-.25.005-.4a1.63 1.63 0 00-.072-.31z" fill="#0060FF"/><path d="M20.366 11.657a1.628 1.628 0 00-.067-.146c-.343-.704-.998-1.567-1.965-2.591l-.021-.024-.01-.011-.01-.012h-.01c-.44-.477-.718-.797-.834-.961-.213-.313-.261-.63-.145-.95.083-.242.392-.754.927-1.536.28-.414.504-.746.668-.996 1.187-1.798 1.702-2.946 1.544-3.447L20.38.866c-.04-.07-.147-.134-.318-.193-.172-.059-.391-.068-.66-.03L16.44.667c-.049-.02-.117-.018-.206.006L16.1.708l-.052.03-.04.035a.489.489 0 00-.114.123.842.842 0 00-.103.205c-.322.946-.69 1.825-1.1 2.638-.255.484-.488.904-.7 1.26a6.017 6.017 0 01-.536.785 3.943 3.943 0 01-.39.405c-.117.101-.206.144-.268.129a6.762 6.762 0 01-.175-.047.75.75 0 01-.232-.288 1.423 1.423 0 01-.118-.457 5.73 5.73 0 01-.036-.475c-.003-.132-.002-.32.005-.562.007-.243.01-.407.01-.493 0-.297.006-.62.016-.967l.026-.826c.007-.203.01-.418.01-.645a3.07 3.07 0 00-.036-.533 2.008 2.008 0 00-.108-.376.616.616 0 00-.21-.281 1.112 1.112 0 00-.346-.158c-.363-.094-.826-.145-1.389-.153C8.94.042 8.12.136 7.755.34a1.431 1.431 0 00-.39.351c-.124.172-.14.266-.052.282.412.07.703.238.875.504l.062.14c.048.102.096.282.144.54.048.258.079.543.092.855.035.571.035 1.06 0 1.466-.034.406-.066.723-.097.95a2.105 2.105 0 01-.263.808.19.19 0 01-.051.059.688.688 0 01-.278.059c-.096 0-.213-.055-.35-.165-.137-.11-.28-.26-.427-.451a6.09 6.09 0 01-.5-.803c-.184-.344-.376-.75-.575-1.22l-.165-.34a31.019 31.019 0 01-.422-.955 19.807 19.807 0 01-.473-1.213.77.77 0 00-.247-.375L4.586.796A.991.991 0 004.185.62l-2.82.023C1.079.643.883.717.78.866l-.041.07a.425.425 0 00-.031.188c0 .086.02.191.062.316a40.928 40.928 0 001.343 3.189 37.311 37.311 0 001.26 2.473c.357.626.72 1.216 1.09 1.77.371.556.617.911.737 1.067.12.157.214.274.283.352l.257.281c.165.188.406.413.725.674.32.262.673.52 1.06.774.388.254.839.461 1.353.622a4.15 4.15 0 001.503.193h1.183c.24-.024.422-.11.545-.258l.041-.059a.841.841 0 00.078-.216c.024-.098.036-.205.036-.323a4.382 4.382 0 01.066-.908c.052-.27.11-.473.175-.61a1.53 1.53 0 01.222-.345.934.934 0 01.175-.17.627.627 0 01.082-.041c.165-.063.358-.002.582.181.222.184.432.41.627.68.196.27.43.573.705.909.274.336.515.586.72.75l.206.14c.137.095.316.18.535.259.22.078.412.098.576.059l2.635-.047c.26 0 .463-.05.607-.147.144-.098.23-.205.257-.322.027-.118.029-.25.005-.4a1.63 1.63 0 00-.072-.31z" fill="#5380BA"/></svg>