<svg width="26" height="24" fill="none" xmlns="http://www.w3.org/2000/svg"><g filter="url(#filter0_d_524_71265)"><path d="M17.169 2C19.837 2 22 4.073 22 6.631c0 2.66-2.366 4.63-4.233 6.271C14.215 16.027 13.021 16.983 13 17c-.021-.017-1.215-.973-4.767-4.098C6.366 11.26 4 9.29 4 6.632 4 4.072 6.163 2 8.831 2c1.777 0 3.33.92 4.169 2.29C13.84 2.92 15.392 2 17.169 2z" fill="#F1592A"/><path d="M17.169 2C19.837 2 22 4.073 22 6.631c0 2.66-2.366 4.63-4.233 6.271C14.215 16.027 13.021 16.983 13 17c-.021-.017-1.215-.973-4.767-4.098C6.366 11.26 4 9.29 4 6.632 4 4.072 6.163 2 8.831 2c1.777 0 3.33.92 4.169 2.29C13.84 2.92 15.392 2 17.169 2z" fill="#F7542E"/><path d="M12.375 17.78l.625.5.624-.5c.038-.03 1.245-.997 4.803-4.127l.224-.196c.867-.76 1.893-1.66 2.713-2.684C22.265 9.648 23 8.275 23 6.631 23 3.481 20.35 1 17.169 1A5.92 5.92 0 0013 2.694 5.92 5.92 0 008.831 1C5.651 1 3 3.482 3 6.631c0 1.644.735 3.017 1.636 4.142.82 1.024 1.846 1.924 2.713 2.684l.223.196c3.559 3.13 4.765 4.097 4.803 4.128z" stroke="#fff" stroke-width="2"/></g><defs><filter id="filter0_d_524_71265" x="0" y="0" width="26" height="23.561" filterUnits="userSpaceOnUse" color-interpolation-filters="sRGB"><feFlood flood-opacity="0" result="BackgroundImageFix"/><feColorMatrix in="SourceAlpha" values="0 0 0 0 0 0 0 0 0 0 0 0 0 0 0 0 0 0 127 0" result="hardAlpha"/><feOffset dy="2"/><feGaussianBlur stdDeviation="1"/><feColorMatrix values="0 0 0 0 0 0 0 0 0 0 0 0 0 0 0 0 0 0 0.1 0"/><feBlend in2="BackgroundImageFix" result="effect1_dropShadow_524_71265"/><feBlend in="SourceGraphic" in2="effect1_dropShadow_524_71265" result="shape"/></filter></defs></svg>