<svg width="22" height="20" fill="none" xmlns="http://www.w3.org/2000/svg"><path d="M15.169 2C17.837 2 20 4.073 20 6.631c0 2.66-2.366 4.63-4.233 6.271C12.215 16.027 11.021 16.983 11 17c-.021-.017-1.215-.973-4.767-4.098C4.366 11.26 2 9.29 2 6.632 2 4.072 4.163 2 6.831 2c1.777 0 3.33.92 4.169 2.29C11.84 2.92 13.392 2 15.169 2z" fill="#fff"/><path d="M10.375 17.78l.625.5.625-.5c.038-.03 1.244-.997 4.802-4.127l.224-.196c.867-.76 1.893-1.66 2.713-2.684C20.265 9.648 21 8.275 21 6.631 21 3.481 18.35 1 15.169 1A5.92 5.92 0 0011 2.694 5.92 5.92 0 006.831 1C3.651 1 1 3.482 1 6.631c0 1.644.735 3.017 1.636 4.142.82 1.024 1.846 1.924 2.713 2.684l.223.196c3.559 3.13 4.765 4.097 4.803 4.128z" stroke="#000" stroke-opacity=".3" stroke-width="2"/></svg>