<svg width="12" height="20" fill="none" xmlns="http://www.w3.org/2000/svg"><rect x="2.848" y="1.894" width="6.522" height="6.522" rx="3.261" stroke="#3D4859" stroke-width="2.853"/><rect x="2.848" y="1.894" width="6.522" height="6.522" rx="3.261" stroke="#FF9110" stroke-width="2.853"/><path d="M6.207 12.422v2.175m0-2.175a6.886 6.886 0 01-3.953-1.24m3.953 1.24c1.47 0 2.832-.458 3.952-1.24m-3.952 3.415l-3.459 3.458m3.459-3.458l3.458 3.458" stroke="#3D4859" stroke-width="2.853" stroke-linecap="round"/><path d="M6.207 12.422v2.175m0-2.175a6.886 6.886 0 01-3.953-1.24m3.953 1.24c1.47 0 2.832-.458 3.952-1.24m-3.952 3.415l-3.459 3.458m3.459-3.458l3.458 3.458" stroke="#FF9110" stroke-width="2.853" stroke-linecap="round"/></svg>