<svg width="48" height="49" fill="none" xmlns="http://www.w3.org/2000/svg"><circle cx="23.78" cy="24.5" r="23.78" fill="#fff"/><path d="M19.957 14.497a4.24 4.24 0 11-5.996 5.996 4.24 4.24 0 015.996-5.996zm-6.126 13.686a4.424 4.424 0 116.257 6.258 4.424 4.424 0 01-6.257-6.258zm19.944.131a4.24 4.24 0 11-5.996 5.996 4.24 4.24 0 015.996-5.996zm-6.257-13.817c1.655-1.656 4.398-1.598 6.126.13 1.728 1.728 1.786 4.47.13 6.126-1.655 1.656-4.398 1.598-6.126-.13-1.728-1.728-1.786-4.47-.13-6.126z" fill="#000"/><rect x="14.746" y="17.598" width="2.978" height="22.739" rx="1.489" transform="rotate(-45 14.746 17.598)" fill="#000"/><rect width="2.978" height="22.739" rx="1.489" transform="scale(-1 1) rotate(-45 4.776 48.553)" fill="#000"/></svg>