<svg width="60" height="60" fill="none" xmlns="http://www.w3.org/2000/svg"><g clip-path="url(#clip0_512_164)"><path d="M1 23h58v36H1V23z" stroke="#3B2F3B" stroke-width="2"/><path d="M1 23h58v36H1V23z" stroke="#1A1A1A" stroke-width="2"/><path d="M20 39v5h20v-5" stroke="#3B2F3B" stroke-width="2"/><path d="M20 39v5h20v-5" stroke="#1A1A1A" stroke-width="2"/><rect x="16" y="27" width="4" height="4" rx="2" fill="#D0D2D5"/><rect x="24" y="27" width="4" height="4" rx="2" fill="#D0D2D5"/><rect x="32" y="27" width="4" height="4" rx="2" fill="#D0D2D5"/><rect x="40" y="27" width="4" height="4" rx="2" fill="#D0D2D5"/><path d="M11 9L1 23h58L49 9" stroke="#3B2F3B" stroke-width="2"/><path d="M11 9L1 23h58L49 9" stroke="#1A1A1A" stroke-width="2"/><path d="M17 6V1h26v5" stroke="#F1592A" stroke-width="2"/><path d="M17 6V1h26v5" stroke="#F7542E" stroke-width="2"/><path d="M11 13V7h38v6" stroke="#F1592A" stroke-width="2"/><path d="M11 13V7h38v6" stroke="#F7542E" stroke-width="2"/><path d="M5 22v-8h50v8" stroke="#F1592A" stroke-width="2"/><path d="M5 22v-8h50v8" stroke="#F7542E" stroke-width="2"/><path d="M42 2v4H18V2h24zm6 6v5H12V8h36zm6 7v7H6v-7h48z" fill="#FEF8E8"/></g><defs><clipPath id="clip0_512_164"><path fill="#fff" d="M0 0h60v60H0z"/></clipPath></defs></svg>